<?xml version="1.0" encoding="UTF-8" standalone="no"?>
<svg
   xmlns:dc="http://purl.org/dc/elements/1.1/"
   xmlns:cc="http://creativecommons.org/ns#"
   xmlns:rdf="http://www.w3.org/1999/02/22-rdf-syntax-ns#"
   xmlns:svg="http://www.w3.org/2000/svg"
   xmlns="http://www.w3.org/2000/svg"
   xmlns:sodipodi="http://sodipodi.sourceforge.net/DTD/sodipodi-0.dtd"
   xmlns:inkscape="http://www.inkscape.org/namespaces/inkscape"
   inkscape:version="1.0 (4035a4fb49, 2020-05-01)"
   sodipodi:docname="jspeak.svg"
   viewBox="0 0 832 419"
   height="419"
   width="832"
   id="svg10"
   version="1.1">
  <metadata
     id="metadata16">
    <rdf:RDF>
      <cc:Work
         rdf:about="">
        <dc:format>image/svg+xml</dc:format>
        <dc:type
           rdf:resource="http://purl.org/dc/dcmitype/StillImage" />
      </cc:Work>
    </rdf:RDF>
  </metadata>
  <defs
     id="defs14" />
  <sodipodi:namedview
     inkscape:current-layer="g18"
     inkscape:window-maximized="1"
     inkscape:window-y="-8"
     inkscape:window-x="-8"
     inkscape:cy="157.72044"
     inkscape:cx="516.61217"
     inkscape:zoom="0.98687351"
     showgrid="false"
     id="namedview12"
     inkscape:window-height="1017"
     inkscape:window-width="1920"
     inkscape:pageshadow="2"
     inkscape:pageopacity="0"
     guidetolerance="10"
     gridtolerance="10"
     objecttolerance="10"
     borderopacity="1"
     bordercolor="#666666"
     pagecolor="#ffffff" />
  <g
     id="g18"
     inkscape:label="Image"
     inkscape:groupmode="layer">
    <path
       sodipodi:nodetypes="ccscsccccscsssssscscscscssssscsssscssssssssccscssssscssscsccssssssssscccscccccsscccsccscsssccccccccsssccccsscssscs"
       d="m 213.50933,36.405602 c 2.19057,4.697928 8.54927,13.261915 13.35971,15.477761 3.10389,1.430369 9.1716,0.659126 11.46906,3.307732 1.48094,1.707887 -1.2334,7.288672 -1.03728,10.354085 -8.43035,2.731601 -14.82281,10.762608 -6.15404,16.365416 3.76909,2.435718 9.13707,-0.392616 12.29508,2.01571 2.00085,1.526628 2.73434,4.909407 2.15973,7.26716 -2.13218,8.757949 -16.63684,5.744372 -17.33813,16.167344 h 1.40568 c 2.46604,-8.760743 15.80558,-6.93411 17.95191,-15.458816 0.34919,-1.388233 0.13192,-2.833912 -0.15519,-4.209497 -0.48343,-2.319108 -1.23263,-5.689672 -3.82302,-6.482851 -4.55321,-1.394558 -12.24619,2.494617 -13.89785,-4.76268 -1.2596,-5.535376 5.9162,-6.90421 8.76771,-9.699649 1.20353,-1.179574 2.38359,-8.114375 2.54227,-9.964874 0.20583,-2.398502 -1.58317,-3.771263 -3.66763,-4.414097 -3.49109,-1.07701 -7.42275,-0.714232 -10.49909,-2.974308 -5.11172,-3.755819 -7.36844,-10.185761 -13.37873,-12.988436 z M 101.74357,46.969125 c -1.42158,-0.03763 -2.823759,0.05958 -4.152619,0.299326 -2.71881,0.489677 -5.45585,1.396716 -7.69919,3.046297 -2.01559,1.482378 -3.48373,3.429809 -4.37609,5.762955 -4.33264,11.325757 6.03027,16.390182 14.886629,19.706201 3.13182,1.172552 8.19485,2.655182 9.23736,6.31614 2.71455,9.536364 -15.965809,2.917218 -13.655159,11.17354 1.23088,4.397938 8.705239,3.923291 12.143379,3.3191 9.16403,-1.610239 14.2191,-12.348457 8.67672,-20.130561 -3.58033,-5.026729 -10.28745,-6.853209 -15.7014,-9.154044 -2.510849,-1.067176 -7.282309,-2.994772 -7.282309,-6.319928 0,-12.588915 18.460569,0.97199 21.729549,-1.826262 2.99137,-2.561483 0.59846,-6.406968 -1.83382,-8.25607 -3.25947,-2.478051 -7.70831,-3.823803 -11.97305,-3.936694 z m -51.426959,0.162916 c -0.57189,-0.01455 -1.18297,0.0903 -1.82644,0.344791 -5.22482,2.066181 -1.44913,10.170175 3.39487,7.846865 4.37823,-2.099289 2.43384,-8.090272 -1.56843,-8.191656 z m 106.294379,1.000276 c -2.00705,0.02943 -3.93922,0.333623 -5.16797,1.439791 -2.57914,2.321902 -1.86427,6.9267 -1.86427,10.01792 v 23.184435 c 0,3.117195 -0.79305,7.637702 0.8299,10.442278 1.70791,2.951389 5.7676,2.951389 7.47552,0 1.62275,-2.804576 0.82971,-7.325083 0.82971,-10.442278 V 72.938411 56.778644 c 5.25701,0 14.18534,-1.659895 17.49719,3.588112 2.62337,4.156959 -3.77568,13.697497 2.90621,15.034456 7.22993,1.445832 7.55622,-11.553756 6.46016,-15.811184 -3.03773,-11.798568 -13.36223,-11.241743 -23.35113,-11.241743 -1.52459,0 -3.60807,-0.245387 -5.61532,-0.215968 z m 229.50282,0.337214 c -0.56859,0.05859 -1.16687,0.248181 -1.78085,0.602439 -4.48997,2.590292 -0.76492,9.856076 3.96327,7.354304 4.29384,-2.272642 1.79773,-8.366867 -2.18242,-7.956743 z m -77.08195,0.08714 c -0.39691,0.04392 -0.81399,0.150655 -1.25028,0.325848 -3.37917,1.356612 -4.49715,6.340573 -5.92959,9.30181 -4.06629,8.403156 -8.43695,16.734766 -12.17015,25.291079 -1.4276,3.272448 -4.99629,8.630199 -0.89412,11.393299 2.26992,1.528044 4.76583,0.332712 6.24037,-1.651972 1.87106,-2.519329 2.18029,-6.618632 5.04673,-8.316691 6.47471,-3.835901 16.78447,1.646973 23.69605,-1.144256 3.53106,-1.426159 2.8127,-5.213373 1.58764,-8.005999 -3.30506,-7.534804 -6.76338,-15.159165 -10.51442,-22.479696 -1.20218,-2.34703 -3.03386,-5.02093 -5.81223,-4.713422 z m 54.82203,0.0341 c -1.35737,0 -2.71105,0.656132 -3.48954,1.970241 -1.75971,2.971061 -0.72379,8.499775 -0.72379,11.840393 0,8.295663 -2.90834,23.207532 0.523,30.758495 1.4212,3.127032 5.97887,3.247166 7.38454,0.05684 1.8084,-4.105687 0.52281,-10.923741 0.52281,-15.360302 4.10353,4.103572 13.41985,18.153305 19.66837,17.717015 4.37532,-0.304899 4.52818,-5.092549 2.50833,-7.880966 -4.16464,-5.749641 -10.76952,-12.082189 -16.55769,-16.159767 v -0.700951 c 2.54945,-1.744423 5.9453,-3.937811 6.95659,-7.036034 1.34398,-4.121148 -2.77003,-6.498637 -6.25182,-4.781624 -2.46875,1.216821 -4.40519,3.580899 -6.32378,5.493941 0,-3.848549 1.28637,-10.553728 -0.72359,-13.947034 -0.7785,-1.314109 -2.13606,-1.970242 -3.49343,-1.970242 z M 254.2593,58.885282 c -4.00091,1.27723 -9.19255,4.274098 -10.5408,8.430359 3.8851,-1.642558 8.59544,-4.621869 10.5408,-8.430359 z M 50.437861,60.874467 c -0.73116,-0.0074 -1.56921,0.242704 -2.53103,0.841142 -6.05666,3.767052 -0.17266,17.488514 -3.13357,23.150335 -4.19704,8.027294 -10.95498,-3.987922 -15.60654,1.644393 -2.45962,2.978801 0.61185,6.485692 3.09942,8.11209 4.15844,2.716736 11.05023,3.264914 15.43991,0.735051 9.00922,-5.191815 7.07473,-17.929489 7.02836,-26.636146 -0.0194,-2.895198 -1.12865,-7.814855 -4.29655,-7.846865 z m 259.321479,2.227889 6.32378,13.348383 h -12.64737 z m -49.88123,2.811383 -15.45503,6.319927 16.15981,-4.213285 z m -92.02542,6.297193 c -4.90511,-0.157329 -5.59456,7.749255 -0.6782,8.252281 5.65412,0.578194 6.19672,-8.075243 0.6782,-8.252281 z m 77.97626,4.239807 13.34827,2.811384 V 77.856438 Z M 87.444151,82.228852 c -0.55482,0.05907 -1.12671,0.241742 -1.69356,0.568337 -4.86728,2.804556 0.0466,9.77843 4.65273,6.982991 4.05542,-2.460149 0.92515,-7.964786 -2.95917,-7.551328 z M 327.7454,87.192344 c -0.55114,0.03711 -1.13292,0.20561 -1.73159,0.530449 -4.83857,2.625424 -0.7975,10.286176 3.95959,7.558906 3.97958,-2.282495 1.63013,-8.349189 -2.228,-8.089355 z"
       style="fill:#000080;stroke:none;stroke-width:0.702546"
       id="path5364" />
    <path
       id="path5444"
       d="m 381.74237,168.74715 c -1.39384,-0.84997 -1.93837,-1.90524 -1.93837,-3.75693 0,-1.54052 0.0543,-1.70011 0.84231,-2.51397 1.00004,-1.03184 2.18126,-1.47381 3.4748,-1.30029 2.87382,0.38544 4.37862,4.08333 2.60727,6.40592 -1.19635,1.56851 -3.45792,2.09705 -4.98601,1.16527 z"
       style="fill:#ffe680;stroke-width:0.245717" />
    <path
       id="path5446"
       d="m 323.78057,207.76574 c -1.59133,-0.92575 -2.38476,-2.23791 -2.37176,-3.9222 0.0194,-1.48712 0.52436,-2.4904 1.61868,-3.16672 1.74826,-1.0805 3.16305,-0.88279 4.60752,0.64388 1.77232,1.87308 1.52479,4.49466 -0.57053,6.04642 -0.77655,0.57503 -2.60009,0.7964 -3.28391,0.39862 z"
       style="fill:#ffd42a;stroke-width:0.245717" />
    <path
       id="path5448"
       d="m 381.62171,168.41171 c -1.75156,-1.17022 -2.30192,-4.08873 -1.05125,-5.57513 2.4414,-2.90141 6.72787,-1.29337 6.72787,2.52387 0,2.78371 -3.36752,4.59381 -5.67662,3.05126 z"
       style="fill:#ffd42a;stroke-width:0.245717" />
    <path
       id="path5450"
       d="m 163.1955,192.25112 c -1.87533,-0.94569 -2.48912,-3.13141 -1.46135,-5.20533 0.64309,-1.29824 1.52246,-1.91336 2.92095,-2.04344 1.32614,-0.12336 2.47128,0.51644 3.41855,1.91028 1.19538,1.75838 0.30573,4.47906 -1.7731,5.42315 -1.311,0.59541 -1.78202,0.58257 -3.10505,-0.0847 z"
       style="fill:#ffd42a;stroke-width:0.245717" />
    <path
       id="path5452"
       d="m 83.594941,202.17677 c -1.34359,-0.72058 -2.26584,-2.03746 -2.3993,-3.42612 -0.10476,-1.08245 -0.0369,-1.28677 0.68596,-2.11082 0.44055,-0.50179 1.13466,-1.08487 1.54243,-1.29573 1.06347,-0.54995 2.87517,-0.32583 3.94175,0.48759 0.92922,0.70888 1.87824,2.42772 1.87824,3.40216 0,0.95469 -0.98937,2.23235 -2.20396,2.84593 -1.33059,0.67221 -2.32054,0.70008 -3.44512,0.097 z"
       style="fill:#ffd42a;stroke-width:0.245717" />
    <path
       id="path5454"
       d="m 45.641771,167.42883 c -1.3176,-0.74629 -2.44276,-2.84071 -2.26293,-4.21243 0.23221,-1.77225 1.57813,-3.02169 3.50021,-3.24933 2.30774,-0.27332 4.0498,1.29546 4.22537,3.80494 0.12027,1.73219 -0.53193,2.84403 -2.15042,3.66173 -1.37017,0.69217 -2.08329,0.69112 -3.31223,-0.005 z"
       style="fill:#ffd42a;stroke-width:0.245717" />
    <path
       id="path5456"
       d="m 33.761641,208.77012 c -4.59628,-1.20417 -8.15817,-4.45347 -8.15817,-7.44226 0,-1.48555 1.04557,-2.91373 2.55526,-3.49025 1.36591,-0.52167 2.33063,-0.32864 5.50901,1.1024 4.74915,2.13816 6.61439,1.75928 8.43365,-1.71313 0.5426,-1.03554 0.57946,-1.37088 0.57946,-5.28291 0,-2.29745 -0.0989,-5.84425 -0.22018,-7.88177 -0.26674,-4.48781 0.0194,-6.43453 1.17308,-8.17059 0.95793,-1.4334 3.13492,-2.63884 4.30257,-2.38238 1.58996,0.34921 2.79951,2.01224 3.48896,4.79747 0.47897,1.93459 0.48362,16.38751 0,18.79732 -1.2755,6.4364 -4.58832,10.44391 -9.74369,11.78673 -2.0055,0.52233 -5.68574,0.46631 -7.92616,-0.12064 z"
       style="fill:#00aad4;stroke-width:0.245717" />
    <path
       id="path5458"
       d="m 97.120911,208.8751 c -2.45673,-0.66037 -3.94271,-2.28224 -3.94446,-4.30501 -0.002,-2.25263 1.01652,-2.82996 6.6429,-3.76597 5.949959,-0.98983 7.251269,-1.83147 7.226049,-4.67314 -0.0194,-1.79145 -0.62486,-3.09301 -2.04876,-4.37945 -1.2272,-1.10861 -2.519,-1.76499 -6.292549,-3.197 -6.17325,-2.34283 -9.11961,-3.81791 -11.95851,-5.9871 -1.84254,-1.40787 -3.01232,-2.8087 -3.96638,-4.74959 -0.74745,-1.52072 -0.78315,-1.72561 -0.76899,-4.4229 0.0194,-2.46129 0.0989,-3.04541 0.67006,-4.50131 2.27825,-5.81503 8.10192,-9.2614 15.6498,-9.2614 9.186149,0 17.615529,5.98011 15.150069,10.74796 -1.04213,2.01506 -1.99715,1.98559 -8.75587,-0.27017 -5.562939,-1.85666 -7.202379,-2.2162 -9.510309,-2.08579 -2.95646,0.16705 -4.23409,1.68476 -4.24437,5.04189 0,1.61643 0.0601,1.84968 0.79905,2.81717 1.18181,1.54951 3.24143,2.70953 8.953169,5.0425 6.18333,2.52565 8.47613,3.71398 10.59143,5.48956 3.14696,2.64135 4.71403,5.86147 4.71403,9.68709 0,6.20453 -4.40306,11.47521 -10.68882,12.7949 -2.1863,0.45905 -6.470249,0.44746 -8.217539,-0.0222 z"
       style="fill:#00aad4;stroke-width:0.245717" />
    <path
       id="path5460"
       d="m 149.52229,207.32869 c -1.18859,-0.55531 -2.13547,-1.8521 -2.5316,-3.46746 -0.19012,-0.77122 -0.24929,-6.79239 -0.19865,-19.90305 0.0718,-18.56434 0.0795,-18.81103 0.59362,-19.90304 0.66539,-1.41275 1.65417,-2.33368 3.0453,-2.83646 0.91545,-0.33085 2.16418,-0.39433 7.36804,-0.37453 7.34167,0.0279 12.10206,0.35551 14.65501,1.00845 7.56631,1.93514 11.52803,8.64439 10.42596,17.65671 -0.51757,4.23241 -1.80278,6.90929 -3.77627,7.8646 -1.37075,0.66357 -2.50018,0.65273 -3.86822,-0.0371 -1.96825,-0.99258 -2.34906,-2.77883 -1.58434,-7.43292 0.19981,-1.2163 0.36374,-3.10203 0.36432,-4.19051 5.8e-4,-1.76972 -0.0757,-2.09981 -0.72321,-3.12071 -0.84154,-1.32714 -2.04061,-2.18737 -4.08355,-2.92995 -1.21013,-0.43983 -2.15914,-0.54874 -5.57827,-0.64007 -2.26622,-0.0605 -4.94468,-0.0328 -5.95228,0.0616 l -1.83227,0.17168 -0.0679,17.36408 -0.0679,17.36408 -0.58276,1.18337 c -1.08539,2.20477 -3.51069,3.13985 -5.60542,2.16124 z"
       style="fill:#00aad4;stroke-width:0.245717" />
    <path
       id="path5462"
       d="m 225.61682,219.22773 c 0,-0.33279 0.23066,-1.22165 0.51272,-1.97524 0.94727,-2.53201 3.2166,-4.24669 8.45596,-6.38937 4.43643,-1.81431 6.92303,-3.68478 7.8509,-5.90537 1.36028,-3.2556 0.15519,-7.72059 -2.44509,-9.06448 -0.85706,-0.44279 -1.56513,-0.52365 -5.52861,-0.6314 -4.43797,-0.12065 -4.57377,-0.14001 -5.72279,-0.81538 -4.07928,-2.3978 -5.36313,-5.68271 -3.60031,-9.21071 1.05299,-2.1071 3.58537,-4.4008 6.43203,-5.82584 1.21207,-0.60678 2.34576,-1.10324 2.51958,-1.10324 0.19011,0 0.38294,-0.46757 0.48362,-1.16716 0.0931,-0.64193 0.43668,-2.34781 0.76511,-3.79085 0.32824,-1.44304 0.59692,-3.25077 0.59692,-4.01717 0,-1.23459 -0.0854,-1.47278 -0.74455,-2.08909 -0.98548,-0.92044 -2.40415,-1.36177 -6.28343,-1.95444 -1.77057,-0.27052 -3.6913,-0.65838 -4.26823,-0.86189 -2.49766,-0.88127 -6.29217,-4.39117 -9.70586,-8.97806 -1.84565,-2.48006 -3.94485,-5.84246 -3.76172,-6.02555 0.18429,-0.18396 2.03673,1.18411 3.47151,2.5632 0.79013,0.75943 2.38456,2.54178 3.54347,3.9608 2.82978,3.465 3.85309,4.53668 5.52415,5.78473 1.68308,1.25717 3.4715,1.87596 7.42333,2.56859 4.33439,0.75966 6.16374,1.73578 6.78588,3.62068 0.30049,0.91061 -0.12998,4.15101 -1.00566,7.57659 -0.89994,3.51861 -1.11372,3.76465 -5.53385,6.36975 -2.47535,1.45895 -4.07036,3.01336 -4.5342,4.41873 -0.71952,2.18036 0.46113,5.31052 2.44257,6.47538 1.09043,0.64113 1.24214,0.66036 6.1552,0.78019 3.79625,0.0926 5.21609,0.21366 5.76315,0.49143 1.93158,0.98075 3.42766,4.71762 3.44298,8.60008 0,1.86365 -0.0698,2.23013 -0.71971,3.40277 -1.05474,1.90413 -2.78283,3.32756 -5.76974,4.75246 -7.13157,3.40213 -7.6765,3.70496 -9.01097,5.00787 -0.77772,0.75932 -1.59831,1.87649 -1.96224,2.67114 -0.44328,0.96841 -0.76298,1.36593 -1.09878,1.36593 -0.3391,0 -0.47334,-0.17149 -0.47334,-0.60508 z"
       style="fill:#00aad4;stroke-width:0.245717" />
    <path
       id="path5464"
       d="m 241.34267,179.08598 c 0,-0.53426 1.6984,-2.66795 2.95839,-3.71651 2.15352,-1.79214 6.62467,-4.11965 6.62467,-3.44856 0,0.49387 -3.56889,3.97621 -5.1348,5.01042 -1.49142,0.9849 -4.00557,2.35824 -4.31712,2.35824 -0.0718,0 -0.13192,-0.0916 -0.13192,-0.20359 z"
       style="fill:#00aad4;stroke-width:0.245717" />
    <path
       id="path5466"
       d="m 245.29469,183.37097 c 0.0563,-0.0527 2.5902,-1.11222 5.63104,-2.35453 3.04064,-1.24231 5.64694,-2.30915 5.79166,-2.37075 0.21087,-0.0898 0.96492,1.6284 0.77325,1.76179 -0.0291,0.0204 -2.66469,0.71715 -5.85626,1.54823 -5.33209,1.38852 -6.61807,1.67558 -6.33969,1.41526 z"
       style="fill:#00aad4;stroke-width:0.245717" />
    <path
       id="path5468"
       d=""
       style="fill:#00aad4;stroke-width:0.126663" />
    <path
       id="path5470"
       d=""
       style="fill:#00aad4;stroke-width:0.126663" />
    <path
       id="path5472"
       d=""
       style="fill:#00aad4;stroke-width:0.126663" />
    <path
       id="path5476"
       d="m 250.04286,190.39453 c -3.30971,-0.69836 -5.94976,-1.27617 -5.86634,-1.28402 0.0834,-0.008 2.83268,0.26953 6.11,0.6164 l 5.95849,0.63067 0.0194,0.65826 c 0.0194,0.59873 0,0.65781 -0.0931,0.65334 -0.0601,-0.003 -2.81756,-0.5763 -6.12747,-1.27465 z"
       style="fill:#00aad4;stroke-width:0.0614292" />
    <path
       id="path5478"
       d="m 287.54326,207.97207 c -0.79518,-0.13176 -1.62295,-0.58789 -2.31046,-1.27328 -0.40214,-0.40099 -0.54589,-0.59732 -0.74551,-1.01885 -0.40331,-0.85182 -0.51835,-1.62487 -0.38838,-2.61074 0.19012,-1.44476 0.59731,-2.57218 1.94071,-5.37755 0.38081,-0.79534 0.95445,-2.03928 1.27473,-2.76431 1.7698,-4.00577 3.40166,-7.41813 7.78377,-16.27623 3.79858,-7.67863 4.15882,-8.43444 4.91753,-10.32009 0.76705,-1.90597 1.18879,-2.84613 1.62644,-3.62584 1.35349,-2.41156 3.04103,-3.64617 4.97495,-3.63947 0.73989,0.002 1.33467,0.17216 2.00938,0.57299 0.85706,0.50919 1.93876,1.71023 2.69902,2.99697 1.60238,2.71226 6.87104,13.85882 10.87835,23.01481 1.04853,2.39562 1.41576,4.01914 1.21711,5.38118 -0.29564,2.02791 -1.63613,3.15919 -4.39471,3.70914 -2.16458,0.43149 -4.19956,0.3836 -8.97683,-0.21124 -3.19895,-0.3983 -4.02187,-0.48215 -5.47798,-0.55823 -2.1023,-0.10986 -3.93165,0.0696 -5.41143,0.53087 -1.8053,0.5628 -2.92387,1.33949 -3.7784,2.62369 -0.40661,0.61123 -1.04019,1.91466 -1.57329,3.23688 -0.51117,1.26801 -1.08306,2.43955 -1.48385,3.03958 -0.3971,0.59438 -1.17017,1.38825 -1.70229,1.74798 -0.98471,0.66582 -2.14731,0.9761 -3.07886,0.82174 z m 25.66353,-19.10836 c -0.0504,-0.19083 -6.2685,-13.28405 -6.30904,-13.28405 -0.0407,0 -6.28421,13.14347 -6.32068,13.30408 -0.0194,0.0752 0.86656,0.0875 6.31893,0.0875 6.0068,0 6.33756,-0.006 6.31079,-0.10749 z"
       style="fill:#00aad4;stroke-width:0.0614292" />
    <path
       id="path5480"
       d="m 359.50282,207.37831 c -0.67567,-0.33408 -1.67086,-1.49025 -2.21132,-2.56927 -0.87511,-1.74679 -0.97947,-2.90463 -0.95096,-10.56194 0.0582,-15.89729 0.58703,-29.18073 1.21479,-30.5585 0.83359,-1.82894 2.98439,-2.66799 4.85409,-1.89355 2.20648,0.91394 2.75586,2.86453 2.66993,9.47755 -0.0407,3.17589 0.0388,5.77434 0.18041,5.77434 0.13967,0 1.55854,-1.2067 3.15141,-2.68155 3.46162,-3.20484 5.68206,-3.88629 7.72209,-2.37003 2.80824,2.08705 1.62779,5.74406 -2.99273,9.27212 -1.28385,0.98031 -2.33432,2.06341 -2.33432,2.4069 0,0.34349 1.21964,1.56548 2.71047,2.71553 4.67543,3.6071 13.30947,12.95909 14.25849,15.4441 1.07569,2.81644 0.40855,4.86112 -1.84235,5.64573 -3.21272,1.12 -7.99426,-2.50554 -15.99298,-12.12691 -2.30328,-2.77046 -4.37551,-5.0372 -4.6052,-5.0372 -0.22949,0 -0.28129,2.59846 -0.11446,5.77435 0.194,3.6836 0.10282,6.5023 -0.24772,7.78489 -0.86696,3.16857 -3.16636,4.64167 -5.46867,3.50344 z"
       style="fill:#00aad4;stroke-width:0.491433" />
    <circle
       r="37.461628"
       cy="187.58719"
       cx="536.15405"
       id="path5564"
       style="fill:none;stroke:#00aad4;stroke-width:2.07573;stroke-miterlimit:4;stroke-dasharray:none;stroke-opacity:1" />
    <g
       transform="matrix(1.9399299,0,0,1.9399299,-2018.3732,191.75713)"
       id="g6413">
      <path
         id="path5462-3"
         d="m 1322.7063,9.9983267 c 0,-0.104683 0.073,-0.384283 0.1613,-0.621335 0.298,-0.79647 1.0118,-1.335842 2.6599,-2.009846 1.3956,-0.570711 2.1778,-1.1590866 2.4696,-1.8576004 0.4279,-1.0240823 0.049,-2.4285961 -0.7691,-2.8513303 -0.2696,-0.1392847 -0.4923,-0.1647208 -1.7391,-0.1986152 -1.396,-0.03795 -1.4387,-0.04404 -1.8001,-0.2564866 -1.2832,-0.7542537 -1.6871,-1.78755654 -1.1326,-2.89732744 0.3313,-0.66281116 1.1279,-1.38432016 2.0233,-1.83258326 0.3813,-0.1908708 0.7379,-0.3470368 0.7926,-0.3470368 0.06,0 0.1204,-0.147078 0.1521,-0.3671414 0.029,-0.2019276 0.1374,-0.7385324 0.2407,-1.1924557 0.1032,-0.4539235 0.1877,-1.0225634 0.1877,-1.2636449 0,-0.3883534 -0.027,-0.4632782 -0.2342,-0.6571465 -0.31,-0.2895322 -0.7562,-0.4283575 -1.9765,-0.6147883 -0.557,-0.085097 -1.1611,-0.207101 -1.3426,-0.2711192 -0.7857,-0.2772112 -1.9793,-1.3812905 -3.0531,-2.8241477 -0.5806,-0.780129 -1.2409,-1.83781 -1.1833,-1.895401 0.058,-0.05787 0.6407,0.372473 1.092,0.806282 0.2486,0.238886 0.7501,0.799546 1.1146,1.2459122 0.8902,1.0899562 1.2121,1.4270623 1.7377,1.8196526 0.5295,0.3954553 1.092,0.5901028 2.3351,0.8079761 1.3634,0.2389616 1.9389,0.5460097 2.1346,1.1389263 0.094,0.2864426 -0.041,1.3057444 -0.3164,2.3832999 -0.283,1.1068162 -0.3503,1.1842093 -1.7407,2.0036749 -0.7786,0.4589285 -1.2804,0.94788386 -1.4263,1.38995866 -0.2263,0.6858576 0.1451,1.67048154 0.7684,2.03690344 0.343,0.2016743 0.3907,0.2077216 1.9362,0.2454159 1.1941,0.029126 1.6407,0.06721 1.8128,0.1545856 0.6076,0.308506 1.0782,1.4839781 1.083,2.7052507 0,0.5862315 -0.022,0.7015112 -0.2263,1.0703783 -0.3318,0.5989627 -0.8754,1.0467191 -1.815,1.4949361 -2.2433,1.07018 -2.4147,1.165438 -2.8345,1.575281 -0.2446,0.238852 -0.5027,0.590273 -0.6172,0.840236 -0.1395,0.3046273 -0.24,0.4296693 -0.3457,0.4296693 -0.1066,0 -0.1489,-0.05394 -0.1489,-0.1903333 z"
         style="fill:#00aad4;stroke-width:0.0772931" />
      <path
         id="path5464-8"
         d="m 1327.6531,-2.6287046 c 0,-0.1680569 0.5342,-0.8392301 0.9306,-1.1690672 0.6774,-0.5637365 2.0838,-1.2958804 2.0838,-1.0847824 0,0.1553508 -1.1226,1.2507591 -1.6152,1.5760823 -0.4691,0.3098124 -1.26,0.7418087 -1.358,0.7418087 -0.022,0 -0.041,-0.028821 -0.041,-0.064041 z"
         style="fill:#00aad4;stroke-width:0.0772931" />
      <path
         id="path5466-7"
         d="m 1328.8962,-1.2808131 c 0.018,-0.016574 0.8148,-0.3498598 1.7713,-0.7406419 0.9565,-0.3907822 1.7764,-0.7263682 1.8219,-0.745746 0.066,-0.028247 0.3035,0.5122313 0.2432,0.5541917 -0.01,0.00643 -0.8382,0.2255878 -1.8421,0.4870112 -1.6773,0.4367749 -2.0818,0.5270719 -1.9943,0.445185 z"
         style="fill:#00aad4;stroke-width:0.0772931" />
      <path
         id="path5476-6"
         d="m 1330.3898,0.92852506 c -1.0411,-0.2196766 -1.8715,-0.4014319 -1.8453,-0.4039014 0.026,-0.00244 0.8911,0.084783 1.922,0.1938945 l 1.8743,0.1983845 0.01,0.20706204 c 0.01,0.188339 0,0.2069222 -0.029,0.2055169 -0.019,-8.544e-4 -0.8863,-0.1812806 -1.9275,-0.40095654 z"
         style="fill:#00aad4;stroke-width:0.0193232" />
      <path
         id="path5454-0"
         d="m 1311.2155,-10.997191 c -0.6792,-0.384699 -1.2592,-1.46434 -1.1665,-2.171436 0.1197,-0.913564 0.8135,-1.557629 1.8043,-1.674971 1.1896,-0.140895 2.0876,0.667784 2.1781,1.96138 0.062,0.892914 -0.2742,1.466047 -1.1085,1.887556 -0.7063,0.356805 -1.0739,0.35626 -1.7074,-0.0025 z"
         style="fill:#ffd42a;stroke-width:0.126663" />
      <path
         id="path5456-6"
         d="m 1305.0915,10.31352 c -2.3693,-0.6207248 -4.2054,-2.2956848 -4.2054,-3.8363528 0,-0.765775 0.539,-1.501976 1.3172,-1.799164 0.7041,-0.268912 1.2014,-0.169406 2.8398,0.56827 2.4481,1.102186 3.4096,0.906879 4.3474,-0.88309 0.2797,-0.533801 0.2987,-0.706666 0.2987,-2.723247 0,-1.18429602 -0.051,-3.012608 -0.1135,-4.062916 -0.1375,-2.313388 0.01,-3.3168867 0.6047,-4.2117977 0.4938,-0.738891 1.616,-1.360274 2.2179,-1.228076 0.8196,0.180013 1.4431,1.037276 1.7985,2.473014 0.2469,0.9972467 0.2493,8.4474767 0,9.6896907 -0.6575,3.317851 -2.3652,5.383655 -5.0227,6.0758558 -1.0338,0.269248 -2.9309,0.240373 -4.0858,-0.06219 z"
         style="fill:#00aad4;stroke-width:0.126663" />
    </g>
    <path
       id="path5454-0-8"
       d="m 600.9797,172.05615 c -1.3176,-0.74629 -2.4427,-2.84072 -2.2629,-4.21243 0.2322,-1.77225 1.5781,-3.02169 3.5002,-3.24933 2.3078,-0.27333 4.0498,1.29545 4.2254,3.80494 0.1203,1.73219 -0.5319,2.84403 -2.1504,3.66173 -1.3702,0.69217 -2.0833,0.69112 -3.3123,-0.005 z"
       style="fill:#ffd42a;stroke-width:0.245717" />
    <circle
       style="fill:none;stroke:#00aad4;stroke-width:2.07573;stroke-miterlimit:4;stroke-dasharray:none;stroke-opacity:1"
       id="path5564-4"
       cx="627.19812"
       cy="187.00853"
       r="37.461628" />
    <path
       d="m 604.5484,156.68122 c -0.1746,0.17369 1.8185,3.36082 3.5695,5.71353 3.2383,4.35137 6.8371,7.68127 9.2067,8.51728 0.5473,0.19307 2.3667,0.56211 4.0465,0.81875 3.6803,0.56223 5.026,0.98225 5.9608,1.85542 0.6249,0.58467 0.7069,0.80792 0.7069,1.97912 0,0.72705 -0.2533,2.44204 -0.5654,3.81098 -0.3116,1.36894 -0.6369,2.98996 -0.7244,3.59894 -0.097,0.66366 -0.2774,1.10736 -0.4596,1.10736 -0.1668,0 -1.2417,0.46695 -2.3915,1.04257 -2.7004,1.35188 -5.1032,3.53203 -6.1023,5.53093 -1.6722,3.34685 -0.4535,6.46055 3.4164,8.73523 1.0899,0.64069 1.2208,0.65717 5.4309,0.77161 3.7599,0.10222 4.4292,0.18075 5.2422,0.60081 2.4672,1.27488 3.6112,5.51132 2.3208,8.59974 -0.8802,2.10658 -3.2424,3.88047 -7.4513,5.60162 -4.9703,2.03266 -7.1178,3.65906 -8.0166,6.06105 -0.2653,0.7149 -0.4888,1.5574 -0.4888,1.8731 0,0.41133 0.1261,0.57724 0.4475,0.57724 0.3188,0 0.622,-0.37716 1.0425,-1.29585 0.3454,-0.75384 1.1238,-1.81836 1.8614,-2.53869 1.2662,-1.23601 1.7814,-1.52008 8.547,-4.74753 2.8336,-1.35174 4.4771,-2.69968 5.4777,-4.50603 0.6162,-1.11244 0.6835,-1.45989 0.6835,-3.22785 0,-3.68312 -1.4367,-7.23348 -3.2692,-8.16387 -0.5189,-0.26352 -1.8649,-0.37748 -5.4661,-0.46533 -4.6609,-0.11366 -4.8029,-0.12807 -5.8375,-0.73628 -1.8796,-1.10505 -3.003,-4.07511 -2.3205,-6.14351 0.4399,-1.33321 1.9517,-2.80982 4.2998,-4.19385 4.1932,-2.47135 4.4008,-2.70545 5.2541,-6.04339 0.8307,-3.24969 1.2377,-6.32223 0.9543,-7.18608 -0.5901,-1.78812 -2.3264,-2.71335 -6.4381,-3.43401 -3.7491,-0.65706 -5.4479,-1.24595 -7.0446,-2.43856 -1.5851,-1.18397 -2.5518,-2.20261 -5.2365,-5.4897 -1.0991,-1.34615 -2.6136,-3.03165 -3.3634,-3.75208 -1.3611,-1.30828 -3.1177,-2.60719 -3.2927,-2.43267 z m 37.5208,21.22841 c -0.8396,0.0194 -4.3086,1.89929 -6.096,3.38689 -1.1956,0.99472 -2.8038,3.01554 -2.8038,3.52236 0,0.10621 0.058,0.19438 0.1241,0.19438 0.2955,0 2.6789,-1.30396 4.0937,-2.23829 1.4856,-0.98111 4.8711,-4.28492 4.8711,-4.75342 0,-0.0796 -0.07,-0.11469 -0.1862,-0.11192 z m 5.6842,6.49104 c -0.1358,0.0584 -2.6112,1.07155 -5.4956,2.25007 -2.8847,1.17852 -5.2879,2.18243 -5.3426,2.2324 -0.2623,0.24696 0.9558,-0.0258 6.0142,-1.34297 3.0274,-0.7884 5.5243,-1.44737 5.5544,-1.46667 0.1804,-0.12654 -0.5314,-1.75801 -0.7304,-1.67283 z m -11.8982,9.93094 c -0.078,0.008 2.4265,0.55089 5.5663,1.21339 v 0 c 3.1399,0.6625 5.7561,1.21081 5.8135,1.21339 0.087,0.004 0.1184,-0.0505 0.087,-0.61848 l -0.031,-0.62436 -5.6545,-0.6008 c -3.1091,-0.32907 -5.7178,-0.59038 -5.7961,-0.58314 z"
       style="fill:#00aad4;stroke-width:0.2331"
       id="path5462-3-1" />
    <circle
       r="37.461628"
       cy="186.66103"
       cx="720.84827"
       id="path5564-4-3"
       style="fill:none;stroke:#00aad4;stroke-width:2.07573;stroke-miterlimit:4;stroke-dasharray:none;stroke-opacity:1" />
    <path
       id="path5462-3-1-9"
       style="fill:#00aad4;stroke-width:0.2331"
       d="m 698.1987,156.33373 c -0.1746,0.17368 1.8185,3.36081 3.5695,5.71352 3.2383,4.35137 6.8371,7.68127 9.2067,8.51729 0.5473,0.19306 2.3667,0.5621 4.0465,0.81874 3.6803,0.56224 5.026,0.98225 5.9608,1.85542 0.6249,0.58467 0.707,0.80793 0.707,1.97912 0,0.72706 -0.2534,2.44204 -0.5655,3.81099 -0.3116,1.36894 -0.6369,2.98996 -0.7244,3.59893 -0.097,0.66367 -0.2774,1.10736 -0.4596,1.10736 -0.1668,0 -1.2417,0.46695 -2.3915,1.04258 -2.7004,1.35187 -5.1032,3.53202 -6.1023,5.53093 -1.6722,3.34685 -0.4535,6.46054 3.4164,8.73522 1.0899,0.6407 1.2208,0.65717 5.4309,0.77162 3.76,0.10221 4.4292,0.18074 5.2423,0.60081 2.4672,1.27488 3.6111,5.51131 2.3207,8.59974 -0.8802,2.10658 -3.2424,3.88046 -7.4513,5.60162 -4.9703,2.03266 -7.1178,3.65905 -8.0165,6.06105 -0.2654,0.7149 -0.4889,1.55739 -0.4889,1.8731 0,0.41133 0.1261,0.57724 0.4475,0.57724 0.3188,0 0.622,-0.37716 1.0426,-1.29585 0.3453,-0.75384 1.1238,-1.81837 1.8613,-2.53869 1.2662,-1.23601 1.7815,-1.52009 8.547,-4.74754 2.8336,-1.35173 4.4771,-2.69968 5.4777,-4.50603 0.6162,-1.11243 0.6835,-1.45989 0.6835,-3.22785 0,-3.68311 -1.4367,-7.23348 -3.2692,-8.16387 -0.5189,-0.26352 -1.8648,-0.37747 -5.4661,-0.46532 -4.6609,-0.11366 -4.8029,-0.12808 -5.8375,-0.73628 -1.8796,-1.10506 -3.003,-4.07511 -2.3205,-6.14352 0.44,-1.33321 1.9517,-2.80981 4.2998,-4.19385 4.1932,-2.47134 4.4008,-2.70544 5.2541,-6.04338 0.8307,-3.2497 1.2377,-6.32224 0.9543,-7.18609 -0.5901,-1.78812 -2.3264,-2.71335 -6.4381,-3.43401 -3.7491,-0.65706 -5.4479,-1.24594 -7.0446,-2.43856 -1.5851,-1.18397 -2.5518,-2.20261 -5.2365,-5.4897 -1.0991,-1.34615 -2.6136,-3.03164 -3.3634,-3.75207 -1.3611,-1.30829 -3.1177,-2.6072 -3.2927,-2.43267 z m 37.5208,21.22841 c -0.8396,0.0194 -4.3086,1.89928 -6.096,3.38688 -1.1956,0.99473 -2.8038,3.01554 -2.8038,3.52237 0,0.10621 0.058,0.19437 0.1241,0.19437 0.2955,0 2.6789,-1.30395 4.0937,-2.23829 1.4856,-0.98111 4.8711,-4.28491 4.8711,-4.75342 0,-0.0796 -0.07,-0.11469 -0.1862,-0.11191 z m 5.6842,6.49104 c -0.1358,0.0584 -2.6112,1.07155 -5.4956,2.25007 -2.8847,1.17852 -5.2879,2.18243 -5.3426,2.2324 -0.2623,0.24695 0.9558,-0.0258 6.0142,-1.34298 3.0274,-0.7884 5.5243,-1.44736 5.5544,-1.46667 0.1804,-0.12654 -0.5314,-1.75801 -0.7304,-1.67282 z m -11.8982,9.93093 c -0.078,0.008 2.4265,0.55089 5.5663,1.21339 v 0 c 3.1399,0.6625 5.7561,1.21082 5.8135,1.21339 0.087,0.004 0.1184,-0.0505 0.087,-0.61847 l -0.031,-0.62436 -5.6545,-0.60081 c -3.1091,-0.32907 -5.7178,-0.59037 -5.7961,-0.58314 z" />
    <path
       style="fill:#ffd42a;stroke-width:0.245717"
       d="m 309.85323,302.1102 c -1.59133,-0.92576 -2.38476,-2.23792 -2.37176,-3.9222 0.0194,-1.48713 0.52436,-2.49041 1.61868,-3.16673 1.74826,-1.0805 3.16305,-0.88279 4.60753,0.64388 1.77232,1.87308 1.52478,4.49466 -0.57054,6.04642 -0.77655,0.57504 -2.60009,0.7964 -3.28391,0.39863 z"
       id="path5446-3" />
    <path
       style="fill:#ffd42a;stroke-width:0.245717"
       d="m 378.99737,265.21333 c -1.75156,-1.17022 -2.30192,-4.08873 -1.05125,-5.57513 2.44141,-2.90141 6.72787,-1.29337 6.72787,2.52387 0,2.78371 -3.36752,4.59381 -5.67662,3.05126 z"
       id="path5448-0" />
    <path
       style="fill:#ffd42a;stroke-width:0.245717"
       d="m 161.06255,277.01262 c -1.87533,-0.94568 -2.48913,-3.13141 -1.46135,-5.20533 0.64309,-1.29824 1.52246,-1.91335 2.92095,-2.04344 1.32614,-0.12336 2.47128,0.51645 3.41855,1.91028 1.19538,1.75838 0.30573,4.47907 -1.7731,5.42316 -1.311,0.59541 -1.78202,0.58257 -3.10505,-0.0847 z"
       id="path5450-6" />
    <path
       style="fill:#ffd42a;stroke-width:0.245717"
       d="m 89.324911,290.62403 c -1.34359,-0.72058 -2.26584,-2.03747 -2.3993,-3.42612 -0.10476,-1.08245 -0.0369,-1.28678 0.68596,-2.11082 0.44055,-0.5018 1.13466,-1.08488 1.54244,-1.29574 1.06346,-0.54994 2.87517,-0.32583 3.94174,0.4876 0.92922,0.70888 1.87824,2.42771 1.87824,3.40216 0,0.95468 -0.98937,2.23235 -2.20396,2.84593 -1.33059,0.67221 -2.32054,0.70008 -3.44512,0.097 z"
       id="path5452-4" />
    <path
       style="fill:#ffd42a;stroke-width:0.245717"
       d="m 34.908721,266.07333 c -1.3176,-0.74629 -2.44276,-2.84072 -2.26293,-4.21244 0.23221,-1.77225 1.57813,-3.02169 3.50021,-3.24932 2.30774,-0.27333 4.0498,1.29545 4.22537,3.80494 0.12027,1.73219 -0.53193,2.84402 -2.15042,3.66172 -1.37017,0.69218 -2.08329,0.69112 -3.31223,-0.005 z"
       id="path5454-6" />
    <path
       style="fill:#00aad4;stroke-width:0.245717"
       d="m 32.857241,303.36029 c -4.59627,-1.20417 -8.15826,-4.45347 -8.15826,-7.44226 0,-1.48555 1.04562,-2.91373 2.55528,-3.49025 1.36598,-0.52167 2.33071,-0.32864 5.50909,1.1024 4.74914,2.13817 6.61438,1.75928 8.43365,-1.71313 0.5426,-1.03554 0.57946,-1.37088 0.57946,-5.28291 0,-2.29745 -0.0989,-5.84425 -0.22019,-7.88177 -0.26674,-4.48781 0.0194,-6.43453 1.17308,-8.17059 0.95794,-1.4334 3.13493,-2.63884 4.30257,-2.38238 1.58997,0.34921 2.79951,2.01224 3.48896,4.79747 0.47897,1.93459 0.48363,16.38751 0,18.79732 -1.2755,6.4364 -4.58832,10.44391 -9.74368,11.78673 -2.0055,0.52233 -5.68574,0.46631 -7.92617,-0.12064 z"
       id="path5456-0" />
    <path
       style="fill:#00aad4;stroke-width:0.245717"
       d="m 96.216511,303.46527 c -2.45672,-0.66037 -3.94271,-2.28224 -3.94446,-4.30501 -0.002,-2.25263 1.01653,-2.82996 6.64291,-3.76597 5.949959,-0.98983 7.251259,-1.83146 7.226039,-4.67314 -0.0194,-1.79145 -0.62485,-3.093 -2.04876,-4.37945 -1.2272,-1.10861 -2.519,-1.76498 -6.292549,-3.197 -6.17324,-2.34283 -9.11961,-3.81791 -11.9585,-5.9871 -1.84255,-1.40787 -3.01233,-2.8087 -3.96638,-4.7496 -0.74746,-1.52071 -0.78315,-1.7256 -0.76899,-4.42289 0.0194,-2.46129 0.0989,-3.04541 0.67005,-4.50131 2.27825,-5.81503 8.10192,-9.26139 15.6498,-9.26139 9.186149,0 17.615539,5.9801 15.150079,10.74795 -1.04213,2.01506 -1.99716,1.98559 -8.75588,-0.27017 -5.562939,-1.85665 -7.202369,-2.2162 -9.510309,-2.08579 -2.95645,0.16705 -4.23409,1.68476 -4.24437,5.04189 0,1.61643 0.0601,1.84968 0.79906,2.81717 1.1818,1.54951 3.24143,2.70953 8.95316,5.0425 6.183329,2.52566 8.476139,3.71398 10.591439,5.48956 3.14695,2.64135 4.71403,5.86147 4.71403,9.68709 0,6.20453 -4.40306,11.47521 -10.68882,12.7949 -2.1863,0.45905 -6.470249,0.44746 -8.217549,-0.0222 z"
       id="path5458-3" />
    <path
       style="fill:#00aad4;stroke-width:0.245717"
       d="m 148.6179,301.91887 c -1.1886,-0.55532 -2.13548,-1.85211 -2.53161,-3.46747 -0.19011,-0.77122 -0.24928,-6.79239 -0.19865,-19.90305 0.0718,-18.56434 0.0795,-18.81102 0.59362,-19.90304 0.6654,-1.41275 1.65418,-2.33368 3.0453,-2.83645 0.91545,-0.33086 2.16419,-0.39434 7.36805,-0.37454 7.34166,0.0279 12.10206,0.35551 14.65501,1.00845 7.5663,1.93514 11.52803,8.64439 10.42595,17.65671 -0.51757,4.23241 -1.80277,6.90929 -3.77626,7.8646 -1.37076,0.66357 -2.50018,0.65273 -3.86822,-0.0371 -1.96826,-0.99258 -2.34906,-2.77883 -1.58434,-7.43292 0.19981,-1.2163 0.36373,-3.10203 0.36432,-4.19051 5.8e-4,-1.76972 -0.0757,-2.09981 -0.72321,-3.12071 -0.84154,-1.32714 -2.04061,-2.18737 -4.08355,-2.92995 -1.21013,-0.43983 -2.15914,-0.54874 -5.57827,-0.64007 -2.26623,-0.0605 -4.94469,-0.0328 -5.95229,0.0616 l -1.83226,0.17168 -0.0679,17.36408 -0.0679,17.36408 -0.58275,1.18337 c -1.08539,2.20477 -3.51069,3.13985 -5.60543,2.16124 z"
       id="path5460-4" />
    <path
       style="fill:#00aad4;stroke-width:0.245717"
       d="m 224.71242,313.8179 c 0,-0.33279 0.23066,-1.22165 0.51273,-1.97524 0.94726,-2.53201 3.21659,-4.24669 8.45596,-6.38937 4.43642,-1.81431 6.92302,-3.68477 7.85089,-5.90537 1.36028,-3.2556 0.1552,-7.72059 -2.44508,-9.06448 -0.85707,-0.44279 -1.56514,-0.52365 -5.52861,-0.6314 -4.43798,-0.12065 -4.57377,-0.14001 -5.72279,-0.81538 -4.07929,-2.3978 -5.36313,-5.68271 -3.60032,-9.21071 1.05299,-2.10709 3.58538,-4.4008 6.43203,-5.82584 1.21207,-0.60678 2.34577,-1.10324 2.51958,-1.10324 0.19012,0 0.38294,-0.46757 0.48363,-1.16716 0.0931,-0.64193 0.43668,-2.34782 0.76511,-3.79085 0.32823,-1.44304 0.59691,-3.25077 0.59691,-4.01717 0,-1.23459 -0.0854,-1.47278 -0.74454,-2.08909 -0.98549,-0.92044 -2.40416,-1.36177 -6.28344,-1.95444 -1.77057,-0.27052 -3.69129,-0.65838 -4.26823,-0.86189 -2.49766,-0.88127 -6.29216,-4.39117 -9.70586,-8.97806 -1.84565,-2.48006 -3.94484,-5.84246 -3.76171,-6.02555 0.18429,-0.18396 2.03673,1.18411 3.4715,2.5632 0.79013,0.75943 2.38456,2.54178 3.54348,3.9608 2.82977,3.46501 3.85308,4.53668 5.52414,5.78473 1.68308,1.25717 3.4715,1.87596 7.42334,2.56859 4.33438,0.75966 6.16373,1.73578 6.78587,3.62068 0.3005,0.91061 -0.12998,4.15101 -1.00566,7.57659 -0.89993,3.51861 -1.11371,3.76464 -5.53384,6.36975 -2.47535,1.45895 -4.07036,3.01336 -4.5342,4.41873 -0.71952,2.18036 0.46112,5.31052 2.44256,6.47538 1.09044,0.64113 1.24214,0.66036 6.15521,0.78019 3.79625,0.0926 5.21608,0.21366 5.76314,0.49143 1.93159,0.98075 3.42766,4.71762 3.44299,8.60009 0,1.86365 -0.0698,2.23012 -0.71972,3.40276 -1.05473,1.90413 -2.78282,3.32756 -5.76973,4.75246 -7.13157,3.40213 -7.6765,3.70496 -9.01098,5.00787 -0.77772,0.75932 -1.59831,1.87649 -1.96224,2.67114 -0.44327,0.96842 -0.76297,1.36593 -1.09877,1.36593 -0.3391,0 -0.47335,-0.17149 -0.47335,-0.60508 z"
       id="path5462-8" />
    <path
       style="fill:#00aad4;stroke-width:0.245717"
       d="m 240.43827,273.67614 c 0,-0.53425 1.69841,-2.66794 2.95839,-3.7165 2.15352,-1.79214 6.62467,-4.11965 6.62467,-3.44856 0,0.49386 -3.56889,3.97621 -5.1348,5.01042 -1.49142,0.9849 -4.00557,2.35823 -4.31712,2.35823 -0.0718,0 -0.13192,-0.0916 -0.13192,-0.20359 z"
       id="path5464-4" />
    <path
       style="fill:#00aad4;stroke-width:0.245717"
       d="m 244.3903,277.96114 c 0.0563,-0.0527 2.59019,-1.11222 5.63103,-2.35453 3.04065,-1.24231 5.64694,-2.30915 5.79166,-2.37075 0.21087,-0.0898 0.96492,1.6284 0.77326,1.76179 -0.0291,0.0205 -2.66469,0.71716 -5.85626,1.54823 -5.33209,1.38852 -6.61807,1.67558 -6.33969,1.41526 z"
       id="path5466-75" />
    <path
       style="fill:#00aad4;stroke-width:0.0614292"
       d="m 249.13847,284.9847 c -3.30972,-0.69836 -5.94977,-1.27617 -5.86635,-1.28402 0.0834,-0.008 2.83269,0.26953 6.11,0.6164 l 5.9585,0.63067 0.0194,0.65826 c 0.0194,0.59873 0,0.65781 -0.0931,0.65334 -0.0601,-0.003 -2.81755,-0.57629 -6.12746,-1.27465 z"
       id="path5476-7" />
    <path
       style="fill:#00aad4;stroke-width:0.0614292"
       d="m 286.63886,302.56224 c -0.79517,-0.13176 -1.62294,-0.58789 -2.31045,-1.27328 -0.40215,-0.40098 -0.5459,-0.59732 -0.74552,-1.01885 -0.40331,-0.85182 -0.51835,-1.62487 -0.38837,-2.61074 0.19011,-1.44476 0.5973,-2.57218 1.9407,-5.37754 0.38081,-0.79535 0.95445,-2.03929 1.27473,-2.76432 1.7698,-4.00577 3.40167,-7.41813 7.78378,-16.27623 3.79857,-7.67863 4.15882,-8.43444 4.91752,-10.32009 0.76705,-1.90597 1.18879,-2.84613 1.62644,-3.62584 1.35349,-2.41156 3.04104,-3.64617 4.97495,-3.63947 0.73989,0.003 1.33467,0.17216 2.00938,0.573 0.85706,0.50918 1.93877,1.71023 2.69903,2.99697 1.60238,2.71225 6.87103,13.85881 10.87835,23.01481 1.04853,2.39561 1.41576,4.01913 1.21711,5.38117 -0.29565,2.02791 -1.63614,3.15919 -4.39472,3.70914 -2.16457,0.43149 -4.19956,0.3836 -8.97683,-0.21124 -3.19894,-0.3983 -4.02186,-0.48215 -5.47797,-0.55823 -2.10231,-0.10986 -3.93166,0.0696 -5.41144,0.53087 -1.8053,0.5628 -2.92386,1.33949 -3.7784,2.62369 -0.40661,0.61123 -1.04019,1.91466 -1.57328,3.23688 -0.51117,1.26801 -1.08307,2.43955 -1.48385,3.03958 -0.39711,0.59438 -1.17017,1.38825 -1.70229,1.74798 -0.98471,0.66582 -2.14731,0.9761 -3.07887,0.82174 z m 25.66353,-19.10836 c -0.0504,-0.19083 -6.2685,-13.28405 -6.30904,-13.28405 -0.0407,0 -6.28421,13.14347 -6.32068,13.30408 -0.0194,0.0753 0.86657,0.0875 6.31893,0.0875 6.0068,0 6.33756,-0.006 6.31079,-0.10749 z"
       id="path5478-5" />
    <path
       style="fill:#00aad4;stroke-width:0.491433"
       d="m 358.59843,301.96848 c -0.67568,-0.33408 -1.67086,-1.49025 -2.21133,-2.56927 -0.8751,-1.74679 -0.97947,-2.90463 -0.95095,-10.56194 0.0582,-15.8973 0.58702,-29.18073 1.21478,-30.5585 0.83359,-1.82894 2.98439,-2.66799 4.85409,-1.89355 2.20648,0.91394 2.75587,2.86453 2.66993,9.47755 -0.0407,3.17588 0.0388,5.77434 0.18041,5.77434 0.13968,0 1.55854,-1.2067 3.15142,-2.68155 3.46161,-3.20484 5.68205,-3.88629 7.72208,-2.37003 2.80825,2.08705 1.6278,5.74406 -2.99273,9.27212 -1.28384,0.98031 -2.33431,2.06341 -2.33431,2.4069 0,0.34349 1.21963,1.56548 2.71047,2.71553 4.67542,3.6071 13.30947,12.95909 14.25848,15.4441 1.07569,2.81644 0.40855,4.86112 -1.84235,5.64573 -3.21272,1.12001 -7.99426,-2.50554 -15.99298,-12.12691 -2.30327,-2.77046 -4.37551,-5.0372 -4.6052,-5.0372 -0.22949,0 -0.28128,2.59846 -0.11445,5.77435 0.19399,3.6836 0.10282,6.5023 -0.24773,7.78489 -0.86695,3.16857 -3.16635,4.64167 -5.46866,3.50344 z"
       id="path5480-4" />
  </g>
</svg>
